# xmcd CD database file
#
# Track frame offsets:
#	182
#	13342
#	29787
#	42052
#	55752
#	75525
#	94265
#	112192
#	124200
#	135630
#	146352
#	158187
#	168962
#	179912
#	193647
#	205397
#	217932
#	230435
#	243897
#	254462
#	266582
#	280817
#	292077
#	305935
#
# Disc length: 4250 seconds
#
# Revision: 0
# Processed by: cddbd v1.5PL3 Copyright (c) Steve Scherf et al.
# Submitted via: CDex 1.60beta1
#
DISCID=72109818
DTITLE=Sidney Bechet - 1938-1940
DYEAR=1940
DGENRE=Jazz
TTITLE0=Ja Da
TTITLE1=Really the Blues
TTITLE2=When You and I Were Young, Maggie
TTITLE3=Weary Blues
TTITLE4=Blues for Tommy (Improvisation)
TTITLE5=Summertime
TTITLE6=Pounding Heart Blues
TTITLE7=Magic Island/Meringue
TTITLE8=Mayotte/Meringue
TTITLE9=Rose Rhumba
TTITLE10=Sous Les Palmiers/Meringue
TTITLE11=Original Haitian Music, Pt. 1 (Ca Pique a Haiti)
TTITLE12=Original Haitian Music, Pt. 2
TTITLE13=Tropical Moon-Rhumba
TTITLE14=Baba
TTITLE15=Original Haitian Music, Pt. 3
TTITLE16=Original Haitian Music, Pt. 4
TTITLE17=Ti Ralph
TTITLE18=Meringue d'Amour
TTITLE19=Marche du Colonel Bogey
TTITLE20=Indian Summer
TTITLE21=One O'Clock Jump 
TTITLE22=Preachin' Blues
TTITLE23=Sidney's Blues
EXTD=YEAR: 1940
EXTT0=
EXTT1=
EXTT2=
EXTT3=
EXTT4=
EXTT5=
EXTT6=
EXTT7=
EXTT8=
EXTT9=
EXTT10=
EXTT11=
EXTT12=
EXTT13=
EXTT14=
EXTT15=
EXTT16=
EXTT17=
EXTT18=
EXTT19=
EXTT20=
EXTT21=
EXTT22=
EXTT23=
PLAYORDER=
